<?xml version="1.0" encoding="UTF-8"?>
<!DOCTYPE svg PUBLIC "-//W3C//DTD SVG 1.1//EN" "http://www.w3.org/Graphics/SVG/1.1/DTD/svg11.dtd">
<svg xmlns="http://www.w3.org/2000/svg" version="1.1" width="772px" height="170px" style="shape-rendering:geometricPrecision; text-rendering:geometricPrecision; image-rendering:optimizeQuality; fill-rule:evenodd; clip-rule:evenodd" xmlns:xlink="http://www.w3.org/1999/xlink">
<g><path style="opacity:0.863" fill="#fefffe" d="M 1.5,-0.5 C 3.5,-0.5 5.5,-0.5 7.5,-0.5C 18.42,7.57996 28.92,16.2466 39,25.5C 39.1954,16.7557 39.6954,8.08905 40.5,-0.5C 43.8333,-0.5 47.1667,-0.5 50.5,-0.5C 50.7828,0.28913 51.2828,0.955796 52,1.5C 52.6667,13.8333 52.6667,26.1667 52,38.5C 52.0826,42.2509 50.2492,44.2509 46.5,44.5C 44.0583,43.9639 41.7249,43.1306 39.5,42C 30.821,33.8226 21.821,25.9893 12.5,18.5C 12.6081,26.2283 12.4415,34.2283 12,42.5C 7.93412,43.4637 3.76746,43.797 -0.5,43.5C -0.5,29.5 -0.5,15.5 -0.5,1.5C 0.5,1.16667 1.16667,0.5 1.5,-0.5 Z"/></g>
<g><path style="opacity:0.851" fill="#fefffe" d="M 54.5,-0.5 C 58.1667,-0.5 61.8333,-0.5 65.5,-0.5C 66.3103,10.0905 66.8103,20.7572 67,31.5C 76,34.1667 85,34.1667 94,31.5C 94.1897,20.7572 94.6897,10.0905 95.5,-0.5C 99.1667,-0.5 102.833,-0.5 106.5,-0.5C 107.961,12.162 107.795,24.8287 106,37.5C 103.331,40.1642 100.164,41.9976 96.5,43C 85.8333,43.6667 75.1667,43.6667 64.5,43C 60.5315,42.0357 57.3649,39.8691 55,36.5C 53.8729,30.2701 53.3729,23.9368 53.5,17.5C 53.5203,11.4223 53.8536,5.42231 54.5,-0.5 Z"/></g>
<g><path style="opacity:0.882" fill="#fefffe" d="M 110.5,-0.5 C 125.833,-0.5 141.167,-0.5 156.5,-0.5C 157.423,3.06405 157.756,6.73072 157.5,10.5C 151.5,10.5 145.5,10.5 139.5,10.5C 139.5,21.5 139.5,32.5 139.5,43.5C 135.5,43.5 131.5,43.5 127.5,43.5C 127.5,32.5 127.5,21.5 127.5,10.5C 121.5,10.5 115.5,10.5 109.5,10.5C 109.244,6.73072 109.577,3.06405 110.5,-0.5 Z"/></g>
<g><path style="opacity:0.855" fill="#fefffe" d="M 172.5,-0.5 C 174.167,-0.5 175.833,-0.5 177.5,-0.5C 185.214,8.38503 192.381,17.7184 199,27.5C 200.584,31.6747 202.918,35.3413 206,38.5C 207.009,40.0249 207.509,41.6916 207.5,43.5C 198.573,45.528 192.239,42.528 188.5,34.5C 179.518,33.3347 170.518,33.168 161.5,34C 159.306,36.6947 157.306,39.528 155.5,42.5C 150.88,43.4933 146.214,43.8266 141.5,43.5C 141.351,42.448 141.517,41.448 142,40.5C 148.84,31.4791 155.173,22.1458 161,12.5C 164.727,7.94732 168.561,3.61399 172.5,-0.5 Z M 174.5,14.5 C 175.508,17.0284 177.174,19.1951 179.5,21C 176.5,21.6667 173.5,21.6667 170.5,21C 172.232,19.0281 173.565,16.8614 174.5,14.5 Z"/></g>
<g><path style="opacity:0.847" fill="#fefffe" d="M 212.5,-0.5 C 214.5,-0.5 216.5,-0.5 218.5,-0.5C 229.395,7.55008 239.895,16.2167 250,25.5C 250.195,16.7557 250.695,8.08905 251.5,-0.5C 255.167,-0.5 258.833,-0.5 262.5,-0.5C 263.647,13.0917 263.814,26.7584 263,40.5C 262.002,42.9214 260.168,44.2547 257.5,44.5C 255.058,43.9639 252.725,43.1306 250.5,42C 241.333,34.1667 232.167,26.3333 223,18.5C 222.667,26.5 222.333,34.5 222,42.5C 217.934,43.4637 213.767,43.797 209.5,43.5C 209.167,29.8171 209.501,16.1504 210.5,2.5C 211.425,1.64314 212.092,0.643141 212.5,-0.5 Z"/></g>
<g><path style="opacity:0.829" fill="#fefffe" d="M 265.5,-0.5 C 269.167,-0.5 272.833,-0.5 276.5,-0.5C 277.815,14.1034 277.815,28.7701 276.5,43.5C 272.481,45.0177 268.648,44.6843 265,42.5C 264.201,28.1219 264.367,13.7885 265.5,-0.5 Z"/></g>
<g><path style="opacity:0.925" fill="#aed134" d="M 280.5,-0.5 C 285.167,-0.5 289.833,-0.5 294.5,-0.5C 303.212,6.53204 311.545,14.032 319.5,22C 311.324,30.1677 302.491,37.6677 293,44.5C 288.599,43.5333 284.099,43.2 279.5,43.5C 279.281,42.325 279.614,41.325 280.5,40.5C 287.687,34.1454 295.02,27.9787 302.5,22C 295.656,15.3286 288.323,9.1619 280.5,3.5C 279.374,2.19165 279.374,0.858316 280.5,-0.5 Z"/></g>
<g><path style="opacity:0.793" fill="#fefffe" d="M 327.5,-0.5 C 332.167,-0.5 336.833,-0.5 341.5,-0.5C 342.412,0.738195 342.579,2.07153 342,3.5C 335.305,8.70426 328.805,14.0376 322.5,19.5C 319.015,17.8473 316.348,15.3473 314.5,12C 318.664,7.66999 322.997,3.50332 327.5,-0.5 Z"/></g>
<g><path style="opacity:0.716" fill="#fefffe" d="M 351.5,-0.5 C 352.5,-0.5 353.5,-0.5 354.5,-0.5C 358.546,10.6822 363.046,21.6822 368,32.5C 371.352,21.4178 374.852,10.4178 378.5,-0.5C 380.167,-0.5 381.833,-0.5 383.5,-0.5C 387.62,11.0285 391.454,22.6952 395,34.5C 398.97,23.1112 403.137,11.4445 407.5,-0.5C 408.833,-0.5 410.167,-0.5 411.5,-0.5C 412.355,0.530694 413.022,1.69736 413.5,3C 408.207,16.3763 403.207,29.8763 398.5,43.5C 395.063,46.5371 392.563,45.8704 391,41.5C 388.329,31.9863 385.162,22.653 381.5,13.5C 380.914,13.7093 380.414,14.0426 380,14.5C 376.731,24.141 373.564,33.8076 370.5,43.5C 368.263,45.9132 365.93,45.9132 363.5,43.5C 359.08,29.5698 354.08,15.9031 348.5,2.5C 349.77,1.71237 350.77,0.712371 351.5,-0.5 Z"/></g>
<g><path style="opacity:0.74" fill="#fefffe" d="M 433.5,-0.5 C 437.833,-0.5 442.167,-0.5 446.5,-0.5C 462.047,6.58033 466.547,18.247 460,34.5C 445.855,49.4337 432.188,49.1004 419,33.5C 413.244,17.368 418.078,6.03463 433.5,-0.5 Z M 434.5,5.5 C 449.836,4.15959 456.669,11.1596 455,26.5C 451.746,37.5445 444.58,41.3779 433.5,38C 425.363,33.629 422.196,26.7957 424,17.5C 425.252,11.4215 428.752,7.42152 434.5,5.5 Z"/></g>
<g><path style="opacity:0.684" fill="#fefffe" d="M 474.5,-0.5 C 480.167,-0.5 485.833,-0.5 491.5,-0.5C 498.173,-0.209279 503.34,2.79072 507,8.5C 507.854,12.6251 507.52,16.6251 506,20.5C 503.087,23.0874 499.92,25.254 496.5,27C 499.643,31.4444 503.143,35.6111 507,39.5C 508.164,42.5667 507.164,44.2334 504,44.5C 502.289,44.5607 500.956,43.8941 500,42.5C 496.471,37.6453 492.971,32.812 489.5,28C 485.5,27.3333 481.5,27.3333 477.5,28C 478.814,33.1361 478.814,38.3028 477.5,43.5C 475.5,44.8333 473.5,44.8333 471.5,43.5C 470.352,29.8786 470.185,16.2119 471,2.5C 471.985,1.18586 473.152,0.185857 474.5,-0.5 Z M 478.5,6.5 C 484.509,6.33385 490.509,6.50051 496.5,7C 500.51,10.0419 501.343,13.8752 499,18.5C 498.097,19.7014 496.931,20.5348 495.5,21C 489.843,21.4994 484.176,21.6661 478.5,21.5C 478.5,16.5 478.5,11.5 478.5,6.5 Z"/></g>
<g><path style="opacity:0.675" fill="#fefffe" d="M 517.5,-0.5 C 518.833,-0.5 520.167,-0.5 521.5,-0.5C 521.987,0.473444 522.487,1.47344 523,2.5C 523.333,9.5 523.667,16.5 524,23.5C 531.338,15.3289 538.838,7.32887 546.5,-0.5C 547.833,-0.5 549.167,-0.5 550.5,-0.5C 552.319,0.936213 552.652,2.60288 551.5,4.5C 545.961,9.53993 540.628,14.7066 535.5,20C 541.452,26.7403 547.285,33.5737 553,40.5C 553.505,43.1136 552.338,44.4469 549.5,44.5C 548.5,44.1667 547.5,43.8333 546.5,43.5C 541.333,37.1667 536.167,30.8333 531,24.5C 528.294,26.8706 525.961,29.5372 524,32.5C 523.762,36.2222 523.262,39.8889 522.5,43.5C 520.5,44.8333 518.5,44.8333 516.5,43.5C 515.351,29.5451 515.184,15.5451 516,1.5C 516.717,0.955796 517.217,0.28913 517.5,-0.5 Z"/></g>
<g><path style="opacity:0.738" fill="#fefffe" d="M 568.5,-0.5 C 572.167,-0.5 575.833,-0.5 579.5,-0.5C 582.563,0.699136 585.563,2.19914 588.5,4C 589.98,6.54972 589.313,8.38306 586.5,9.5C 581.308,5.9795 575.641,4.81283 569.5,6C 564.492,9.08525 564.158,12.7519 568.5,17C 576.227,18.1831 583.227,21.0165 589.5,25.5C 593.167,38.0311 588.333,44.6977 575,45.5C 570.647,44.9634 566.48,43.7968 562.5,42C 559.936,40.9377 558.269,39.1044 557.5,36.5C 557.833,34.8333 558.833,33.8333 560.5,33.5C 566.774,38.6535 573.774,40.1535 581.5,38C 585.01,34.952 585.343,31.6187 582.5,28C 577.272,26.0257 571.938,24.3591 566.5,23C 559.949,20.3566 557.449,15.5233 559,8.5C 560.832,4.01577 563.999,1.01577 568.5,-0.5 Z"/></g>
<g><path style="opacity:0.704" fill="#fefffe" d="M 601.5,-0.5 C 602.5,-0.5 603.5,-0.5 604.5,-0.5C 606.721,5.87406 607.054,12.3741 605.5,19C 613.493,19.4997 621.493,19.6664 629.5,19.5C 629.334,13.4908 629.501,7.49076 630,1.5C 630.717,0.955796 631.217,0.28913 631.5,-0.5C 632.5,-0.5 633.5,-0.5 634.5,-0.5C 634.987,0.473444 635.487,1.47344 636,2.5C 636.781,16.5324 636.614,30.5324 635.5,44.5C 633.533,44.7394 631.699,44.4061 630,43.5C 629.501,37.5092 629.334,31.5092 629.5,25.5C 621.493,25.3336 613.493,25.5003 605.5,26C 606.639,31.4162 606.806,36.9162 606,42.5C 604.582,44.3632 602.749,44.8632 600.5,44C 599.344,29.9082 599.177,15.7415 600,1.5C 600.717,0.955796 601.217,0.28913 601.5,-0.5 Z"/></g>
<g><path style="opacity:0.747" fill="#fefffe" d="M 661.5,-0.5 C 665.833,-0.5 670.167,-0.5 674.5,-0.5C 684.131,3.89937 689.798,11.3994 691.5,22C 688.358,40.2399 677.691,47.5732 659.5,44C 649.953,40.0915 644.953,32.9249 644.5,22.5C 645.286,11.0687 650.953,3.40203 661.5,-0.5 Z M 662.5,5.5 C 677.932,4.09901 684.766,11.099 683,26.5C 679.746,37.5445 672.58,41.3779 661.5,38C 654.894,34.802 651.561,29.4686 651.5,22C 651.606,13.9136 655.273,8.41362 662.5,5.5 Z"/></g>
<g><path style="opacity:0.727" fill="#fefffe" d="M 701.5,-0.5 C 706.5,-0.5 711.5,-0.5 716.5,-0.5C 730.994,1.14945 735.827,8.81612 731,22.5C 727.748,26.366 723.581,28.5327 718.5,29C 714.514,29.4988 710.514,29.6655 706.5,29.5C 706.827,34.2137 706.493,38.8804 705.5,43.5C 703.629,44.767 701.796,44.767 700,43.5C 699.833,36.3333 699.667,29.1667 699.5,22C 699.534,14.2654 700.201,6.76544 701.5,-0.5 Z M 706.5,6.5 C 711.511,6.33407 716.511,6.50074 721.5,7C 726.226,9.38826 727.726,13.2216 726,18.5C 724.238,21.268 721.738,22.768 718.5,23C 714.167,23.6667 709.833,23.6667 705.5,23C 706.473,17.5934 706.807,12.0934 706.5,6.5 Z"/></g>
<g><path style="opacity:0.732" fill="#fefffe" d="M 749.5,-0.5 C 753.167,-0.5 756.833,-0.5 760.5,-0.5C 763.563,0.699136 766.563,2.19914 769.5,4C 771.006,6.82502 770.173,8.65836 767,9.5C 760.436,4.80168 753.769,4.46835 747,8.5C 745.877,11.9563 746.71,14.7897 749.5,17C 754.167,18.3333 758.833,19.6667 763.5,21C 766.621,22.3063 769.287,24.1397 771.5,26.5C 771.5,30.5 771.5,34.5 771.5,38.5C 760.773,47.6703 749.939,47.6703 739,38.5C 738.225,36.0507 739.058,34.384 741.5,33.5C 745.811,36.738 750.644,38.738 756,39.5C 764.576,38.9673 766.742,34.9673 762.5,27.5C 757.552,25.846 752.552,24.346 747.5,23C 740.949,20.3566 738.449,15.5233 740,8.5C 741.871,4.00639 745.038,1.00639 749.5,-0.5 Z"/></g>
<g><path style="opacity:0.819" fill="#fefffe" d="M 321.5,24.5 C 322.922,24.7086 324.255,25.2086 325.5,26C 330.241,31.412 335.574,36.0787 341.5,40C 342.816,41.9776 342.316,43.4776 340,44.5C 335.586,43.6971 331.086,43.1971 326.5,43C 323.167,40.3333 319.833,37.6667 316.5,35C 315.196,34.196 314.529,33.0293 314.5,31.5C 316.521,28.8122 318.854,26.4789 321.5,24.5 Z"/></g>
<g><path style="opacity:1" fill="#b3d240" d="M 289.5,169.5 C 286.5,169.5 283.5,169.5 280.5,169.5C 276.937,165.582 275.604,160.915 276.5,155.5C 277.911,153.086 279.911,151.419 282.5,150.5C 282.334,154.514 282.501,158.514 283,162.5C 284.388,163.554 285.888,163.72 287.5,163C 301.659,152.754 315.992,142.754 330.5,133C 333.255,131.289 335.589,129.122 337.5,126.5C 335.589,123.878 333.255,121.711 330.5,120C 315.992,110.246 301.659,100.246 287.5,90C 285.888,89.2797 284.388,89.4464 283,90.5C 282.501,94.4862 282.334,98.4862 282.5,102.5C 282.5,105.167 282.5,107.833 282.5,110.5C 282.5,121.167 282.5,131.833 282.5,142.5C 281.674,144.264 280.341,145.598 278.5,146.5C 277.833,130.167 277.167,113.833 276.5,97.5C 274.712,86.7901 279.045,82.2901 289.5,84C 304.5,94.3333 319.5,104.667 334.5,115C 337.63,117.128 340.463,119.628 343,122.5C 344.652,127.846 343.152,132.013 338.5,135C 322.1,146.522 305.767,158.022 289.5,169.5 Z M 282.5,110.5 C 289.285,114.779 295.952,119.279 302.5,124C 303.833,125.667 303.833,127.333 302.5,129C 295.952,133.721 289.285,138.221 282.5,142.5C 282.5,131.833 282.5,121.167 282.5,110.5 Z"/></g>
<g><path style="opacity:0.855" fill="#fefefe" d="M 276.5,97.5 C 276.5,100.167 276.5,102.833 276.5,105.5C 271.38,102.22 266.38,98.7199 261.5,95C 260.451,94.5078 259.451,94.6744 258.5,95.5C 257.167,116.167 257.167,136.833 258.5,157.5C 259.451,158.326 260.451,158.492 261.5,158C 266.38,154.28 271.38,150.78 276.5,147.5C 277.492,147.672 278.158,147.338 278.5,146.5C 280.341,145.598 281.674,144.264 282.5,142.5C 289.285,138.221 295.952,133.721 302.5,129C 303.833,127.333 303.833,125.667 302.5,124C 295.952,119.279 289.285,114.779 282.5,110.5C 282.5,107.833 282.5,105.167 282.5,102.5C 290.804,108.324 299.138,114.157 307.5,120C 310.167,124.333 310.167,128.667 307.5,133C 299.138,138.843 290.804,144.676 282.5,150.5C 279.911,151.419 277.911,153.086 276.5,155.5C 272.516,157.495 268.849,159.995 265.5,163C 260.054,165.618 255.554,164.451 252,159.5C 251.333,137.5 251.333,115.5 252,93.5C 255.554,88.5488 260.054,87.3821 265.5,90C 268.849,93.0045 272.516,95.5045 276.5,97.5 Z M 276.5,105.5 C 276.5,119.5 276.5,133.5 276.5,147.5C 271.38,150.78 266.38,154.28 261.5,158C 260.451,158.492 259.451,158.326 258.5,157.5C 257.167,136.833 257.167,116.167 258.5,95.5C 259.451,94.6744 260.451,94.5078 261.5,95C 266.38,98.7199 271.38,102.22 276.5,105.5 Z M 282.5,110.5 C 289.285,114.779 295.952,119.279 302.5,124C 303.833,125.667 303.833,127.333 302.5,129C 295.952,133.721 289.285,138.221 282.5,142.5C 282.5,131.833 282.5,121.167 282.5,110.5 Z"/></g>
<g><path style="opacity:0.797" fill="#fefffe" d="M 371.5,104.5 C 373.903,104.393 375.736,105.393 377,107.5C 381.252,114.339 385.752,121.006 390.5,127.5C 395.248,121.006 399.748,114.339 404,107.5C 406.034,104.141 408.368,103.808 411,106.5C 411.667,119.833 411.667,133.167 411,146.5C 409.604,148.527 407.938,148.86 406,147.5C 405.667,137.167 405.333,126.833 405,116.5C 401,122.5 397,128.5 393,134.5C 391.333,135.833 389.667,135.833 388,134.5C 384,128.5 380,122.5 376,116.5C 375.667,126.833 375.333,137.167 375,147.5C 373.062,148.86 371.396,148.527 370,146.5C 369.333,133.167 369.333,119.833 370,106.5C 370.717,105.956 371.217,105.289 371.5,104.5 Z"/></g>
<g><path style="opacity:0.643" fill="#c2db67" d="M 276.5,97.5 C 277.167,113.833 277.833,130.167 278.5,146.5C 278.158,147.338 277.492,147.672 276.5,147.5C 276.5,133.5 276.5,119.5 276.5,105.5C 276.5,102.833 276.5,100.167 276.5,97.5 Z"/></g>
<g><path style="opacity:0.814" fill="#fefffe" d="M 430.5,115.5 C 447.639,114.801 454.472,122.801 451,139.5C 444.819,148.83 436.652,150.996 426.5,146C 419.044,139.356 417.544,131.522 422,122.5C 424.441,119.546 427.275,117.213 430.5,115.5 Z M 432.5,120.5 C 443.3,120.469 447.8,125.803 446,136.5C 441.521,143.884 435.687,145.218 428.5,140.5C 425.638,136.267 424.805,131.6 426,126.5C 427.494,123.686 429.66,121.686 432.5,120.5 Z"/></g>
<g><path style="opacity:0.798" fill="#fefffe" d="M 457.5,115.5 C 458.822,115.33 459.989,115.663 461,116.5C 464.333,124.5 467.667,132.5 471,140.5C 474.333,132.5 477.667,124.5 481,116.5C 483.493,115.054 485.327,115.721 486.5,118.5C 482.112,128.514 477.445,138.347 472.5,148C 471.5,148.667 470.5,148.667 469.5,148C 464.038,138.407 459.371,128.407 455.5,118C 456.056,116.989 456.722,116.156 457.5,115.5 Z"/></g>
<g><path style="opacity:0.792" fill="#fefffe" d="M 499.5,115.5 C 512.95,114.12 519.45,120.12 519,133.5C 511.253,134.482 503.42,134.815 495.5,134.5C 497.132,142.014 501.799,144.848 509.5,143C 511.762,141.953 513.929,140.787 516,139.5C 517.5,139.667 518.333,140.5 518.5,142C 515.704,146.649 511.538,148.816 506,148.5C 493.081,146.891 487.748,139.558 490,126.5C 491.798,121.518 494.965,117.851 499.5,115.5 Z M 501.5,120.5 C 508.855,119.167 512.855,122.167 513.5,129.5C 507.5,129.5 501.5,129.5 495.5,129.5C 495.932,125.41 497.932,122.41 501.5,120.5 Z"/></g>
</svg>
